{"title":"Pempti kai 12 2014 DVDRip greek x264-N3kr4","uid":10207813,"size":1337250137,"categoryP":"video","categoryS":"hd___movies","magnet":"?xt=urn:btih:47672d9e8616cf9eafa60e052a120c94693e53b9&amp;dn=Pempti+kai+12+2014+DVDRip+greek+x264-N3kr4&amp;tr=udp%3A%2F%2Ftracker.openbittorrent.com%3A80&amp;tr=udp%3A%2F%2Fopen.demonii.com%3A1337&amp;tr=udp%3A%2F%2Ftracker.coppersurfer.tk%3A6969&amp;tr=udp%3A%2F%2Fexodus.desync.com%3A6969","seeders":1,"leechers":0,"uploader":"Falcon.G13","files":1,"time":1400870485,"description":" &lt;a href=&quot;http://www.imdb.com/title/tt3435612/&quot; rel=&quot;nofollow&quot; target=&quot;_NEW&quot;&gt;http://www.imdb.com/title/tt3435612/&lt;/a&gt;\n &lt;a href=&quot;\nhttp://i.imgur.com/B29bsDq.jpg&quot; rel=&quot;nofollow&quot; target=&quot;_NEW&quot;&gt;\nhttp://i.imgur.com/B29bsDq.jpg&lt;/a&gt; &lt;a href=&quot;\nhttp://i.imgur.com/0cU1lXR.jpg&quot; rel=&quot;nofollow&quot; target=&quot;_NEW&quot;&gt;\nhttp://i.imgur.com/0cU1lXR.jpg&lt;/a&gt; &lt;a href=&quot;\nhttp://i.imgur.com/GPelg4K.jpg&quot; rel=&quot;nofollow&quot; target=&quot;_NEW&quot;&gt;\nhttp://i.imgur.com/GPelg4K.jpg&lt;/a&gt; &lt;a href=&quot;\nhttp://i.imgur.com/jGtE7V6.jpg&quot; rel=&quot;nofollow&quot; target=&quot;_NEW&quot;&gt;\nhttp://i.imgur.com/jGtE7V6.jpg&lt;/a&gt; &lt;a href=&quot;\nhttp://i.imgur.com/971WUEH.jpg&quot; rel=&quot;nofollow&quot; target=&quot;_NEW&quot;&gt;\nhttp://i.imgur.com/971WUEH.jpg&lt;/a&gt; &lt;a href=&quot;\nhttp://i.imgur.com/CdT0DRq.jpg&quot; rel=&quot;nofollow&quot; target=&quot;_NEW&quot;&gt;\nhttp://i.imgur.com/CdT0DRq.jpg&lt;/a&gt; &lt;a href=&quot;\nhttp://i.imgur.com/YKBO148.jpg&quot; rel=&quot;nofollow&quot; target=&quot;_NEW&quot;&gt;\nhttp://i.imgur.com/YKBO148.jpg&lt;/a&gt; &lt;a href=&quot;\nhttp://i.imgur.com/e10LNea.jpg&quot; rel=&quot;nofollow&quot; target=&quot;_NEW&quot;&gt;\nhttp://i.imgur.com/e10LNea.jpg&lt;/a&gt;\n\nGeneral\nComplete name : Pempti kai 12 2014 DVDRip greek x264-N3kr4.mkv\nFormat : Matroska\nFormat version : Version 2\nFile size : 1.25 GiB\nDuration : 1h 41mn\nOverall bit rate : 1 753 Kbps\nWriting application : HandBrake 0.9.9\nWriting library : libmkv 0.6.5\n\nVideo\nID : 1\nFormat : AVC\nFormat/Info : Advanced Video Codec\nFormat profile : &lt;a class=&quot;__cf_email__&quot; href=&quot;/cdn-cgi/l/email-protection&quot; data-cfemail=&quot;f7bf9e909fb7bbc4d9c7&quot;&gt;[email&amp;#160;protected]&lt;/a&gt;&lt;script data-cfhash='f9e31' type=&quot;text/javascript&quot;&gt;\n/* &lt;![CDATA[ */!function(){try{var t=&quot;currentScript&quot;in document?document.currentScript:function(){for(var t=document.getElementsByTagName(&quot;script&quot;),e=t.length;e--;)if(t[e].getAttribute(&quot;data-cfhash&quot;))return t[e]}();if(t&amp;&amp;t.previousSibling){var e,r,n,i,c=t.previousSibling,a=c.getAttribute(&quot;data-cfemail&quot;);if(a){for(e=&quot;&quot;,r=parseInt(a.substr(0,2),16),n=2;a.length-n;n+=2)i=parseInt(a.substr(n,2),16)^r,e+=String.fromCharCode(i);e=document.createTextNode(e),c.parentNode.replaceChild(e,c)}t.parentNode.removeChild(t);}}catch(u){}}()/* ]]&gt; */&lt;/script&gt;\nFormat settings, CABAC : Yes\nFormat settings, ReFrames : 4 frames\nCodec ID : V_MPEG4/ISO/AVC\nDuration : 1h 41mn\nBit rate : 1 300 Kbps\nWidth : 720 pixels\nHeight : 304 pixels\nDisplay aspect ratio : 2.35:1\nFrame rate mode : Constant\nFrame rate : 25.000 fps\nColor space : YUV\nChroma subsampling : 4:2:0\nBit depth : 8 bits\nScan type : Progressive\nBits/(Pixel*Frame) : 0.238\nStream size : 924 MiB (72%)\nLanguage : English\nDefault : Yes\nForced : No\nColor primaries : BT.601 PAL\nTransfer characteristics : BT.709\nMatrix coefficients : BT.601\n\nAudio\nID : 2\nFormat : AC-3\nFormat/Info : Audio Coding 3\nMode extension : CM (complete main)\nFormat settings, Endianness : Big\nCodec ID : A_AC3\nDuration : 1h 41mn\nBit rate mode : Constant\nBit rate : 448 Kbps\nChannel(s) : 6 channels\nChannel positions : Front: L C R, Side: L R, LFE\nSampling rate : 48.0 KHz\nBit depth : 16 bits\nCompression mode : Lossy\nStream size : 326 MiB (26%)\nLanguage : Greek\nDefault : Yes\nForced : No\n","torrent":{"xt":"urn:btih:47672d9e8616cf9eafa60e052a120c94693e53b9","amp;dn":"Pempti+kai+12+2014+DVDRip+greek+x264-N3kr4","amp;tr":["udp%3A%2F%2Ftracker.openbittorrent.com%3A80","udp%3A%2F%2Fopen.demonii.com%3A1337","udp%3A%2F%2Ftracker.coppersurfer.tk%3A6969","udp%3A%2F%2Fexodus.desync.com%3A6969"],"infoHash":"47672d9e8616cf9eafa60e052a120c94693e53b9","infoHashBuffer":{"type":"Buffer","data":[71,103,45,158,134,22,207,158,175,166,14,5,42,18,12,148,105,62,83,185]},"announce":[],"urlList":[]}}